External Loads File
version=1
nRows=55
nColumns=13
Range=5.000000e-03-10 seconds
endheader
time 	forceRightX 	forceRightY 	forceRightZ 	pointRightX 	pointRightY 	pointRightZ 	forceLeftX 	forceLeftY 	forceLeftZ 	pointLeftX 	pointLeftY 	pointLeftZ 		
0.005000 3.967544 204.001417 -0.000000 0.379251 0.386879 -0.101023 60.480662 256.411966 -0.000000 0.087816 0.259936 -0.338981
0.010000 3.404434 204.755453 -0.000000 0.379283 0.386842 -0.101016 60.812241 256.430710 -0.000000 0.087818 0.259959 -0.338973
0.015000 2.870170 205.463456 -0.000000 0.379340 0.386800 -0.101016 61.072700 256.436082 -0.000000 0.087804 0.259985 -0.338976
0.020000 2.437504 206.086111 -0.000000 0.379406 0.386629 -0.101009 61.236587 256.366728 -0.000000 0.087796 0.260034 -0.338972
0.025000 1.829764 206.603505 -0.000000 0.379458 0.386949 -0.100944 60.870418 256.275047 -0.000000 0.087820 0.260272 -0.339223
0.030000 1.397930 207.004837 -0.000000 0.379509 0.386833 -0.100927 60.422598 256.072904 -0.000000 0.087670 0.260245 -0.339121
0.035000 1.050858 207.300945 -0.000000 0.379600 0.386783 -0.100925 59.879838 255.852684 -0.000000 0.087606 0.260331 -0.339101
0.040000 0.799892 207.511781 -0.000000 0.379674 0.386717 -0.100923 59.385361 255.692004 -0.000000 0.087572 0.260402 -0.339101
0.045000 0.719471 207.659667 -0.000000 0.379750 0.386641 -0.100931 59.140166 255.624378 -0.000000 0.087528 0.260526 -0.339112
0.050000 0.754393 207.765660 -0.000000 0.379823 0.386555 -0.100921 59.128346 255.672858 -0.000000 0.087479 0.260628 -0.339119
0.055000 0.888006 207.846742 -0.000000 0.379885 0.386458 -0.100909 59.305556 255.802556 -0.000000 0.087433 0.260719 -0.339133
0.060000 1.110638 207.914633 -0.000000 0.379955 0.386350 -0.100905 59.581461 255.947472 -0.000000 0.087405 0.260827 -0.339124
0.065000 1.368244 207.973261 -0.000000 0.380004 0.386232 -0.100887 59.807529 256.052155 -0.000000 0.087390 0.260932 -0.339112
0.070000 1.619206 208.016307 -0.000000 0.380050 0.386154 -0.100888 59.890675 256.074428 -0.000000 0.087358 0.261061 -0.339105
0.075000 1.778650 208.031608 -0.000000 0.380095 0.386096 -0.100889 59.742921 256.010066 -0.000000 0.087357 0.261126 -0.339103
0.080000 1.912651 208.007052 -0.000000 0.380121 0.386012 -0.100889 59.509497 255.841456 -0.000000 0.087371 0.261201 -0.339087
0.085000 2.025092 207.937419 -0.000000 0.380160 0.385946 -0.100907 59.271990 255.594212 -0.000000 0.087357 0.261279 -0.339092
0.090000 2.128958 207.826123 -0.000000 0.380182 0.385864 -0.100919 59.097673 255.300561 -0.000000 0.087376 0.261339 -0.339095
0.095000 2.262252 207.684425 -0.000000 0.380193 0.385790 -0.100914 59.039642 254.980687 -0.000000 0.087388 0.261410 -0.339110
0.100000 2.406933 207.530450 -0.000000 0.380213 0.385736 -0.100928 59.051101 254.664955 -0.000000 0.087406 0.261446 -0.339113
0.105000 2.598935 207.384528 -0.000000 0.380235 0.385689 -0.100922 59.145694 254.365386 -0.000000 0.087420 0.261470 -0.339123
0.110000 2.879746 207.261308 -0.000000 0.380244 0.385628 -0.100932 59.339461 254.084792 -0.000000 0.087438 0.261513 -0.339133
0.115000 3.230342 207.161673 -0.000000 0.380262 0.385582 -0.100937 59.557619 253.828133 -0.000000 0.087461 0.261544 -0.339140
0.120000 3.669124 207.069513 -0.000000 0.380288 0.385512 -0.100933 59.761435 253.569012 -0.000000 0.087489 0.261574 -0.339148
0.125000 4.149730 206.963580 -0.000000 0.380312 0.385415 -0.100929 59.844471 253.279927 -0.000000 0.087526 0.261595 -0.339156
0.130000 4.582962 206.833351 -0.000000 0.380332 0.385383 -0.100923 59.669360 252.938714 -0.000000 0.087543 0.261615 -0.339152
0.135000 5.020985 206.677045 -0.000000 0.380362 0.385329 -0.100934 59.293165 252.493879 -0.000000 0.087563 0.261667 -0.339156
0.140000 5.420049 206.494284 -0.000000 0.380398 0.385272 -0.100935 58.694988 251.947714 -0.000000 0.087577 0.261697 -0.339170
0.145000 5.788346 206.273122 -0.000000 0.380440 0.385220 -0.100946 57.992563 251.319672 -0.000000 0.087590 0.261739 -0.339176
0.150000 6.074338 205.993503 -0.000000 0.380465 0.385187 -0.100950 57.311265 250.672068 -0.000000 0.087600 0.261772 -0.339166
0.155000 6.303317 205.634920 -0.000000 0.380496 0.385115 -0.100961 56.883252 250.054226 -0.000000 0.087607 0.261812 -0.339168
0.160000 6.451603 205.194504 -0.000000 0.380551 0.385057 -0.100945 56.774830 249.510627 -0.000000 0.087616 0.261864 -0.339172
0.165000 6.514919 204.685292 -0.000000 0.380593 0.385010 -0.100945 56.903401 249.033095 -0.000000 0.087639 0.261884 -0.339165
0.170000 6.558588 204.116560 -0.000000 0.380637 0.384950 -0.100961 57.166968 248.545398 -0.000000 0.087643 0.261904 -0.339170
0.175000 6.563091 203.486681 -0.000000 0.380680 0.384910 -0.100943 57.375535 247.981439 -0.000000 0.087649 0.261959 -0.339163
0.180000 6.465881 202.789782 -0.000000 0.380731 0.384863 -0.100938 57.349590 247.313048 -0.000000 0.087668 0.261964 -0.339167
0.185000 6.298361 202.023754 -0.000000 0.380773 0.384817 -0.100920 57.073271 246.527476 -0.000000 0.087691 0.261993 -0.339166
0.190000 6.052373 201.200708 -0.000000 0.380798 0.384784 -0.100934 56.522489 245.662975 -0.000000 0.087702 0.261992 -0.339169
0.195000 5.810100 200.343213 -0.000000 0.380829 0.384764 -0.100926 55.830934 244.758917 -0.000000 0.087715 0.262009 -0.339179
0.200000 5.608585 199.480363 -0.000000 0.380852 0.384751 -0.100914 55.125073 243.874173 -0.000000 0.087723 0.262009 -0.339182
0.205000 5.492065 198.636252 -0.000000 0.380876 0.384751 -0.100920 54.559783 243.052262 -0.000000 0.087748 0.262007 -0.339188
0.210000 5.498780 197.827728 -0.000000 0.380889 0.384764 -0.100908 54.252969 242.308336 -0.000000 0.087773 0.262013 -0.339180
0.215000 5.641408 197.063081 -0.000000 0.380893 0.384761 -0.100906 54.251092 241.625399 -0.000000 0.087796 0.261997 -0.339201
0.220000 5.895498 196.340019 -0.000000 0.380898 0.384792 -0.100911 54.555034 240.967720 -0.000000 0.087808 0.261984 -0.339191
0.225000 6.225225 195.649308 -0.000000 0.380905 0.384814 -0.100902 55.167825 240.311961 -0.000000 0.087828 0.261954 -0.339198
0.230000 6.554786 194.984555 -0.000000 0.380901 0.384851 -0.100907 56.025247 239.688369 -0.000000 0.087853 0.261912 -0.339213
0.235000 6.845421 194.348277 -0.000000 0.380880 0.384891 -0.100905 57.054446 239.143793 -0.000000 0.087867 0.261872 -0.339190
0.240000 7.034564 193.755972 -0.000000 0.380870 0.384958 -0.100903 58.099646 238.718004 -0.000000 0.087899 0.261814 -0.339205
0.245000 7.127870 193.227339 -0.000000 0.380840 0.384996 -0.100895 59.056312 238.399426 -0.000000 0.087926 0.261739 -0.339184
0.250000 7.103487 192.784067 -0.000000 0.380828 0.385065 -0.100894 59.762409 238.161560 -0.000000 0.087949 0.261660 -0.339165
0.255000 6.983199 192.436647 -0.000000 0.380768 0.385141 -0.100882 60.102150 237.955748 -0.000000 0.087966 0.261578 -0.339202
0.260000 6.808737 192.172691 -0.000000 0.380736 0.385229 -0.100868 60.031090 237.739901 -0.000000 0.087985 0.261465 -0.339168
0.265000 6.881386 191.961834 -0.000000 0.380694 0.385301 -0.100874 59.925328 237.430597 -0.000000 0.088017 0.261756 -0.339172
0.270000 6.799973 191.816502 -0.000000 0.380637 0.385389 -0.100852 59.395468 237.211322 -0.000000 0.088041 0.261672 -0.339174
0.275000 6.826176 191.739522 -0.000000 0.380578 0.385492 -0.100805 58.943287 237.080464 -0.000000 0.088058 0.261589 -0.339181
